<?xml version="1.0" standalone="no"?>
<!DOCTYPE svg PUBLIC "-//W3C//DTD SVG 20010904//EN"
 "http://www.w3.org/TR/2001/REC-SVG-20010904/DTD/svg10.dtd">
<svg version="1.0" xmlns="http://www.w3.org/2000/svg"
 width="300.000000pt" height="473.000000pt" viewBox="0 0 300.000000 473.000000"
 preserveAspectRatio="xMidYMid meet">
<metadata>
Created by potrace 1.10, written by Peter Selinger 2001-2011
</metadata>
<g transform="translate(0.000000,473.000000) scale(0.100000,-0.100000)"
fill="#000000" stroke="none">
<path d="M1446 4722 c-3 -3 -6 -47 -6 -99 l0 -93 31 0 c30 0 31 1 26 34 -5 34
-5 35 31 38 27 2 40 10 51 29 19 34 8 77 -22 83 -45 9 -106 14 -111 8z m84
-37 c16 -19 3 -55 -20 -55 -14 0 -18 8 -18 35 0 37 16 46 38 20z"/>
<path d="M1200 4700 c-36 -36 -20 -75 43 -99 19 -7 27 -17 25 -29 -4 -22 -41
-27 -58 -7 -19 23 -32 18 -28 -12 3 -25 7 -28 47 -31 34 -3 48 2 68 20 35 33
28 68 -21 93 -22 11 -41 26 -44 33 -6 20 27 26 47 8 25 -23 31 -20 31 14 0 29
-2 30 -45 30 -32 0 -51 -6 -65 -20z"/>
<path d="M1611 4626 l-1 -94 31 -6 c17 -3 47 -6 65 -6 27 0 34 4 34 20 0 17
-7 20 -40 20 -36 0 -40 2 -40 26 0 25 2 26 35 20 31 -6 35 -4 35 14 0 16 -6
20 -35 20 -31 0 -35 3 -35 26 0 23 3 25 37 22 29 -2 38 1 41 15 3 15 -5 17
-61 17 l-65 0 -1 -94z"/>
<path d="M1770 4619 c0 -88 2 -97 20 -102 26 -7 32 5 24 48 -9 50 19 38 36
-16 7 -21 19 -39 26 -39 7 0 19 -3 28 -6 23 -9 20 10 -9 56 -29 46 -30 50 -11
50 18 0 30 33 21 59 -7 23 -25 32 -87 41 l-48 6 0 -97z m75 47 c24 -17 13 -46
-17 -46 -19 0 -23 5 -23 30 0 33 11 37 40 16z"/>
<path d="M1069 4703 c-11 -2 -24 -33 -39 -91 -13 -48 -25 -93 -28 -99 -2 -8 5
-13 22 -13 21 0 26 5 26 24 0 21 5 25 30 24 22 -1 30 -6 30 -20 0 -13 7 -18
25 -18 30 0 30 0 4 111 -21 91 -24 95 -70 82z m21 -125 c-27 -12 -30 -9 -24
25 14 82 16 85 28 32 10 -43 9 -51 -4 -57z"/>
<path d="M933 4688 c-53 -8 -63 -13 -63 -30 0 -16 5 -19 28 -14 l27 7 -3 -81
-4 -80 27 0 27 0 -3 85 c-4 83 -3 85 19 85 15 0 22 6 22 20 0 11 -3 19 -7 19
-5 -1 -36 -6 -70 -11z"/>
<path d="M1940 4602 c0 -99 0 -100 25 -104 32 -7 36 0 25 45 l-8 37 39 -6 c35
-6 39 -4 39 15 0 18 -6 21 -37 21 -34 0 -38 3 -38 25 0 23 3 24 38 18 30 -4
37 -3 37 11 0 19 -7 22 -72 31 l-48 6 0 -99z"/>
<path d="M2099 4578 c25 -94 29 -103 52 -106 24 -3 27 3 52 87 15 49 27 92 27
95 0 4 -11 6 -24 6 -22 0 -25 -6 -35 -63 -6 -35 -11 -72 -11 -82 0 -33 -14 -6
-17 33 -1 20 -7 58 -14 85 -9 39 -15 47 -34 47 l-23 0 27 -102z"/>
<path d="M795 4665 c-5 -2 -27 -6 -47 -10 l-38 -6 0 -101 c0 -87 2 -99 16 -94
9 3 22 6 30 6 10 0 12 10 7 45 -7 58 11 60 33 4 15 -36 19 -40 43 -34 36 9 36
9 6 50 -25 31 -26 37 -12 48 27 21 30 54 8 76 -21 21 -26 23 -46 16z m11 -50
c7 -18 -10 -41 -34 -47 -15 -4 -18 1 -18 28 0 29 4 34 23 34 13 0 26 -7 29
-15z"/>
<path d="M2250 4550 c0 -95 1 -100 21 -100 21 0 21 3 14 78 -4 42 -3 74 1 69
4 -4 9 -17 11 -28 3 -22 42 -120 52 -130 3 -4 16 -10 29 -14 22 -6 22 -5 22
93 0 98 -5 112 -37 112 -3 0 -3 -34 -1 -75 3 -41 1 -75 -4 -75 -4 0 -8 9 -8
20 0 34 -41 130 -60 140 -37 20 -40 13 -40 -90z"/>
<path d="M605 4629 l-40 -9 0 -100 c0 -55 2 -100 5 -100 3 1 30 7 60 14 39 9
56 18 59 31 2 15 -2 17 -25 12 -16 -3 -36 -8 -44 -12 -12 -4 -16 1 -15 22 0
24 5 29 35 33 24 3 36 11 38 24 3 15 -1 18 -20 14 -12 -3 -30 -8 -39 -12 -13
-6 -15 -1 -11 24 3 23 9 30 27 30 34 0 55 10 55 26 0 16 -25 16 -85 3z"/>
<path d="M2438 4512 l3 -100 31 -6 c85 -17 108 -1 108 73 0 75 -31 111 -110
126 l-35 6 3 -99z m85 34 c4 -6 6 -33 5 -61 -3 -43 -6 -50 -25 -53 -21 -3 -22
-1 -16 46 3 30 1 57 -7 71 -11 21 -10 22 12 16 12 -4 26 -13 31 -19z"/>
<path d="M433 4588 l-33 -11 0 -99 0 -98 28 6 c57 14 92 34 104 59 14 31 0 61
-26 59 -22 -2 -20 9 5 24 14 9 19 21 17 40 -2 22 -8 27 -33 29 -16 1 -45 -3
-62 -9z m55 -44 c-2 -9 -12 -23 -24 -30 -19 -13 -21 -12 -21 16 0 25 4 30 24
30 17 0 24 -5 21 -16z m2 -83 c0 -10 -7 -21 -15 -25 -8 -3 -18 -7 -22 -8 -3
-2 -7 9 -7 25 -1 22 3 27 21 27 16 0 23 -6 23 -19z"/>
<path d="M338 4563 c-16 -4 -18 -18 -18 -104 0 -54 4 -99 9 -99 37 0 41 12 41
111 0 54 -3 98 -7 98 -5 -1 -16 -3 -25 -6z"/>
<path d="M2608 4471 l3 -98 42 -12 c23 -7 50 -15 60 -17 12 -4 17 0 17 15 0
16 -8 22 -39 27 -34 5 -40 10 -43 36 -4 22 -1 28 10 23 7 -3 25 -8 39 -11 21
-6 24 -3 21 12 -2 12 -14 21 -32 24 -22 4 -32 12 -37 33 -6 23 -5 28 8 23 8
-3 26 -9 40 -12 20 -6 24 -3 21 12 -2 12 -19 22 -53 31 -28 7 -52 13 -55 13
-3 0 -4 -44 -2 -99z"/>
<path d="M198 4523 c-16 -4 -18 -18 -18 -104 0 -54 4 -99 8 -99 5 0 29 7 55
16 33 11 47 21 47 34 0 13 -5 17 -20 13 -11 -3 -23 -9 -26 -14 -14 -24 -19 -2
-16 76 2 47 0 84 -5 84 -4 -1 -16 -3 -25 -6z"/>
<path d="M2730 4515 c0 -9 12 -18 28 -21 l27 -5 -3 -85 c-2 -51 0 -84 6 -84 6
0 18 -3 27 -6 15 -6 17 2 14 80 -2 47 -3 86 -1 86 1 0 11 -5 22 -12 22 -14 35
-6 27 16 -5 14 -97 46 -131 46 -9 0 -16 -7 -16 -15z"/>
<path d="M26 4384 c-20 -19 -21 -48 -2 -63 32 -26 82 33 56 64 -16 19 -35 19
-54 -1z"/>
<path d="M1348 4393 c18 -2 45 -2 60 0 15 2 0 4 -33 4 -33 0 -45 -2 -27 -4z"/>
<path d="M1598 4393 c23 -2 59 -2 80 0 20 2 1 4 -43 4 -44 0 -61 -2 -37 -4z"/>
<path d="M2917 4393 c-14 -13 -7 -50 13 -68 37 -34 75 6 46 50 -16 24 -45 33
-59 18z"/>
<path d="M1320 4349 c-344 -14 -704 -80 -1088 -201 -89 -28 -141 -50 -157 -66
l-25 -25 -1 -861 c-2 -967 -2 -916 -10 -916 -4 0 -7 -111 -8 -246 -2 -171 1
-244 8 -239 8 4 11 -136 11 -462 0 -285 4 -474 10 -483 5 -8 10 -10 10 -5 0 6
0 729 0 1607 0 1590 0 1597 20 1616 38 35 400 140 665 191 287 56 392 66 725
66 193 0 342 -5 405 -13 276 -36 570 -99 858 -183 175 -52 207 -65 208 -87 0
-15 1 -14 8 2 7 18 8 18 14 2 4 -10 6 -727 5 -1594 -2 -867 -5 -1397 -8 -1177
-5 407 -12 328 -14 -170 -1 -205 -3 -233 -20 -261 -50 -84 -430 -266 -746
-358 -261 -77 -460 -107 -690 -107 -234 0 -441 32 -689 107 -62 19 -116 33
-118 30 -3 -3 43 -20 102 -38 58 -18 102 -34 97 -36 -17 -5 -330 103 -457 157
-164 71 -319 157 -367 204 -17 17 -48 29 -48 18 0 -27 154 -125 314 -201 396
-187 807 -288 1171 -288 371 0 789 106 1180 299 185 91 261 140 289 188 20 34
20 58 20 1635 0 881 -3 1611 -8 1624 -4 12 -12 20 -17 16 -6 -3 -18 1 -28 10
-17 15 -150 61 -157 54 -2 -2 28 -14 66 -27 38 -12 72 -26 74 -30 3 -4 -25 2
-62 15 -96 32 -341 98 -478 129 -393 88 -698 118 -1064 104z"/>
<path d="M515 4252 c-55 -14 -95 -27 -90 -28 6 -2 60 10 120 25 61 16 101 29
90 29 -11 0 -65 -12 -120 -26z"/>
<path d="M1350 4243 c-335 -14 -727 -86 -1082 -197 l-118 -37 0 -499 0 -500
1340 0 1341 0 -3 501 -3 502 -45 13 c-261 80 -573 150 -810 183 -149 21 -429
43 -510 39 -25 -1 -74 -3 -110 -5z m560 -59 c260 -28 671 -116 848 -182 l47
-18 1 -462 2 -463 -22 -14 c-18 -12 -213 -14 -1309 -14 l-1287 -1 -1 383 c-1
210 -2 425 -3 477 l-1 94 105 33 c310 99 683 167 1020 187 123 7 455 -4 600
-20z"/>
<path d="M1281 4166 c-8 -10 -1 -37 32 -117 40 -99 44 -104 72 -104 24 0 31 5
34 25 4 29 -28 179 -42 198 -13 16 -82 15 -96 -2z m88 -18 c5 -13 5 -28 0 -34
-5 -7 -1 -34 11 -69 24 -71 25 -75 2 -75 -13 0 -25 21 -46 85 -17 50 -34 85
-42 85 -15 0 -18 12 -7 23 3 4 21 7 40 7 26 0 36 -5 42 -22z"/>
<path d="M1450 4165 c-19 -23 -5 -140 21 -177 21 -30 50 -36 66 -15 16 19 26
177 12 193 -15 19 -83 18 -99 -1z m90 -5 c0 -5 -5 -10 -11 -10 -7 0 -10 -24
-9 -67 3 -87 2 -93 -11 -93 -25 0 -38 32 -45 104 l-7 76 42 0 c22 0 41 -4 41
-10z"/>
<path d="M1619 4164 c-7 -9 -14 -22 -15 -30 -1 -8 -8 -37 -15 -64 -10 -40 -10
-55 2 -87 13 -32 19 -38 44 -38 27 0 31 6 67 95 47 119 50 142 9 103 -10 -10
-30 -53 -46 -95 -15 -43 -33 -78 -40 -78 -12 0 -30 27 -27 41 1 4 10 40 20 80
19 74 19 74 58 80 l39 6 -41 2 c-27 1 -46 -5 -55 -15z"/>
<path d="M1093 4163 c-52 -10 -47 -27 36 -129 130 -162 143 -173 171 -139 18
21 4 85 -31 140 -16 25 -29 49 -29 54 0 4 -16 24 -35 44 -36 37 -53 41 -112
30z m134 -108 c64 -96 75 -136 40 -143 -10 -2 -17 1 -17 6 0 18 -149 196 -170
204 -34 13 -13 28 38 28 l47 0 62 -95z"/>
<path d="M1797 4128 c-35 -44 -107 -176 -107 -197 0 -7 9 -22 20 -33 31 -34
58 -16 160 110 68 83 89 117 81 125 -8 8 -11 8 -11 -1 0 -7 -7 -12 -15 -12 -8
0 -55 -50 -106 -110 -50 -61 -95 -108 -100 -104 -19 12 -7 46 54 143 l62 100
50 2 c40 1 45 3 25 9 -56 18 -77 12 -113 -32z"/>
<path d="M800 4118 c-64 -18 -52 -25 20 -12 l71 14 149 -121 c102 -84 150
-129 153 -146 5 -29 -18 -43 -36 -20 -21 26 -359 239 -384 242 -13 1 -22 -1
-21 -6 4 -11 419 -279 433 -279 16 0 35 22 35 40 0 31 -30 78 -73 113 -23 19
-56 48 -74 63 -17 16 -41 36 -53 44 -12 8 -34 25 -48 38 -49 43 -98 51 -172
30z"/>
<path d="M2073 4118 c-13 -6 -23 -15 -23 -20 0 -4 -5 -8 -11 -8 -6 0 -16 -6
-23 -12 -7 -7 -40 -35 -72 -63 -108 -91 -164 -148 -164 -165 0 -19 35 -60 52
-60 10 0 406 249 433 272 5 5 4 13 -3 20 -9 9 -12 9 -12 -1 0 -7 -8 -11 -19
-9 -10 2 -99 -49 -207 -119 -104 -67 -197 -125 -206 -128 -20 -8 -32 10 -20
30 16 30 316 265 332 261 8 -3 38 -8 65 -11 40 -5 46 -4 32 5 -27 17 -128 22
-154 8z"/>
<path d="M345 4009 c-49 -16 -97 -37 -105 -46 -13 -14 -13 -14 5 -5 11 5 64
22 117 37 l97 27 335 -128 c292 -113 335 -132 341 -153 8 -31 2 -35 -37 -21
-18 6 -208 60 -421 119 -346 96 -437 115 -437 92 0 -7 867 -251 893 -251 14 0
37 27 37 44 0 10 -62 76 -71 76 -5 0 -33 11 -63 25 -30 14 -58 25 -61 25 -4 0
-70 25 -148 56 -78 30 -167 65 -197 76 -30 11 -64 24 -75 28 -39 16 -88 30
-104 29 -9 0 -56 -14 -106 -30z"/>
<path d="M2385 3986 c-469 -181 -533 -208 -542 -232 -8 -21 17 -68 38 -72 19
-4 880 235 893 248 18 18 -26 50 -103 74 -132 42 -131 42 -286 -18z m269 6
c102 -29 135 -52 74 -49 -18 0 -186 -43 -373 -95 -479 -136 -495 -140 -502
-121 -3 8 -1 19 4 24 12 12 661 266 683 268 8 0 60 -12 114 -27z"/>
<path d="M1395 3872 c-53 -17 -145 -98 -145 -127 0 -8 -4 -15 -8 -15 -5 0 -14
-28 -20 -62 -19 -101 13 -194 89 -262 117 -107 287 -108 392 -2 61 60 81 110
81 196 0 61 -5 84 -26 125 -71 135 -218 195 -363 147z m200 -19 c91 -31 175
-149 175 -247 0 -152 -137 -278 -285 -263 -186 19 -299 208 -221 372 60 128
196 184 331 138z"/>
<path d="M236 3695 c-12 -12 -16 -35 -16 -83 1 -114 -40 -107 464 -79 316 17
440 28 451 37 17 14 13 53 -6 76 -10 13 -190 30 -394 39 -71 3 -159 8 -195 10
-236 16 -288 16 -304 0z m517 -35 c197 -11 362 -22 367 -25 16 -10 11 -33 -7
-39 -10 -2 -205 -15 -433 -27 -228 -12 -416 -26 -418 -30 -2 -5 -8 -9 -13 -9
-5 0 -9 36 -9 80 l0 80 78 -5 c42 -3 238 -15 435 -25z"/>
<path d="M2650 3704 c-25 -2 -144 -8 -265 -14 -358 -18 -495 -29 -512 -43 -18
-14 -16 -41 5 -67 17 -21 31 -23 447 -46 237 -13 436 -24 443 -24 9 0 12 24
12 85 0 81 -1 85 -19 75 -11 -5 -18 -18 -16 -27 2 -10 6 -36 8 -59 4 -37 3
-40 -17 -37 -11 1 -196 12 -411 23 -214 11 -405 23 -422 26 -32 5 -44 26 -23
39 5 3 206 17 446 30 240 14 439 27 442 30 3 3 -1 5 -9 6 -8 0 -25 2 -39 3
-14 1 -45 1 -70 0z"/>
<path d="M2590 3651 c0 -8 120 -3 129 5 2 2 -26 4 -62 4 -37 0 -67 -4 -67 -9z"/>
<path d="M2458 3643 c23 -2 61 -2 85 0 23 2 4 4 -43 4 -47 0 -66 -2 -42 -4z"/>
<path d="M1010 3509 c-41 -10 -102 -25 -135 -33 -33 -8 -107 -28 -165 -46
-137 -40 -375 -106 -420 -115 -59 -12 -70 -29 -70 -106 0 -63 14 -119 30 -119
9 0 881 338 900 349 22 12 24 38 6 66 -20 30 -43 31 -146 4z m124 5 c23 -9 20
-29 -6 -42 -20 -10 -356 -141 -740 -288 -71 -27 -128 -55 -128 -61 0 -7 -4
-13 -10 -13 -6 0 -10 34 -10 83 l0 82 438 122 c240 67 438 122 439 122 1 1 8
-2 17 -5z"/>
<path d="M1851 3516 c-13 -16 -5 -62 13 -73 6 -4 101 -42 211 -84 254 -96 662
-257 687 -270 17 -9 18 -4 18 84 0 85 -2 96 -23 115 -13 12 -43 26 -68 31 -24
5 -78 18 -119 30 -152 42 -226 63 -285 78 -33 9 -64 19 -70 23 -10 7 -28 12
-205 55 -122 29 -143 30 -159 11z m187 -40 c194 -53 705 -196 722 -202 13 -5
13 -7 -1 -16 -13 -9 -14 -21 -7 -71 4 -33 6 -62 4 -64 -2 -3 -15 2 -28 11 -13
8 -197 82 -408 165 -480 186 -470 181 -470 192 0 12 33 29 48 24 7 -2 70 -20
140 -39z"/>
<path d="M2100 3428 c3 -3 86 -29 185 -57 99 -28 196 -56 216 -62 20 -6 42
-10 49 -7 7 2 -81 30 -196 61 -248 68 -260 71 -254 65z"/>
<path d="M2595 3285 c17 -8 39 -14 50 -14 13 0 8 5 -15 14 -46 18 -74 17 -35
0z"/>
<path d="M1040 3347 c-213 -125 -379 -241 -365 -255 2 -2 112 67 245 153 224
145 277 171 283 140 1 -5 -77 -74 -172 -152 l-173 -141 -77 -6 c-103 -7 -109
-8 -104 -23 4 -9 32 -13 99 -13 l93 0 176 142 c144 117 175 147 175 168 -1 30
-21 60 -41 60 -8 0 -71 -33 -139 -73z"/>
<path d="M1800 3405 c-12 -14 -8 -49 7 -71 5 -6 83 -72 176 -147 l167 -137 95
0 c79 0 95 3 95 15 0 31 -34 66 -107 112 -41 25 -81 52 -88 60 -8 8 -18 14
-22 15 -4 0 -26 13 -48 28 -80 54 -231 140 -247 140 -8 0 -21 -7 -28 -15z
m287 -162 c133 -86 243 -161 243 -166 0 -5 -8 -6 -17 -1 -10 4 -51 10 -92 12
l-75 4 -150 123 c-189 153 -196 160 -196 174 0 30 63 -2 287 -146z"/>
<path d="M1985 3273 c12 -13 181 -125 213 -142 53 -28 14 2 -85 66 -123 79
-143 91 -128 76z"/>
<path d="M1199 3283 c-62 -66 -142 -163 -134 -163 4 0 2 -7 -5 -15 -7 -9 -10
-18 -7 -21 2 -3 46 46 97 108 50 62 97 116 104 120 22 12 49 -15 41 -41 -4
-12 -12 -20 -18 -18 -11 3 -114 -150 -110 -164 1 -3 -12 -3 -28 -1 -33 5 -82
-15 -73 -30 3 -4 29 -8 59 -8 l53 0 66 99 c66 100 80 143 54 169 -23 23 -54
12 -99 -35z"/>
<path d="M1708 3319 c-20 -11 -24 -54 -7 -65 6 -3 40 -51 75 -105 l64 -99 55
0 c29 0 56 4 59 9 7 10 -18 73 -36 93 -7 7 -25 29 -39 48 -49 66 -116 130
-135 130 -10 0 -27 -5 -36 -11z m141 -120 c50 -60 91 -114 91 -119 0 -13 -17
-13 -25 0 -3 6 -21 10 -39 10 -31 0 -37 6 -86 85 -29 46 -56 82 -61 79 -4 -2
-13 4 -18 15 -13 23 10 54 33 45 8 -3 55 -55 105 -115z"/>
<path d="M1355 3268 c-12 -5 -32 -39 -52 -89 -26 -67 -30 -85 -21 -105 10 -20
18 -24 58 -24 l47 0 17 83 c10 45 20 87 21 94 8 28 -38 56 -70 41z m43 -20
c16 -16 15 -48 -1 -48 -13 0 -41 -95 -33 -109 3 -4 -8 -5 -25 -3 -17 3 -29 0
-29 -7 0 -6 -4 -11 -10 -11 -5 0 -10 6 -10 13 0 11 53 148 65 168 8 13 29 11
43 -3z"/>
<path d="M1595 3258 c-28 -22 -32 -40 -11 -57 7 -6 22 -43 32 -81 l18 -70 52
0 53 0 -23 63 c-13 34 -26 77 -29 95 -10 61 -50 83 -92 50z m73 -52 c17 -35
20 -51 12 -56 -12 -8 2 -44 25 -63 6 -5 2 -6 -8 -3 -10 3 -27 6 -37 6 -13 0
-20 10 -24 38 -11 59 -16 72 -32 72 -17 0 -19 31 -2 48 22 22 42 9 66 -42z"/>
<path d="M1472 3244 c-19 -13 -22 -24 -22 -93 0 -46 5 -82 12 -89 7 -7 31 -12
53 -12 l41 0 -4 88 c-3 72 -7 90 -24 105 -25 21 -28 21 -56 1z m58 -25 c9 -15
8 -24 -1 -35 -7 -8 -10 -31 -7 -57 5 -42 4 -43 -18 -39 -14 2 -24 0 -24 -7 0
-6 -5 -11 -11 -11 -14 0 -3 139 13 158 16 18 36 15 48 -9z"/>
<path d="M375 4215 c-5 -2 -76 -24 -157 -49 -153 -48 -189 -71 -188 -120 1
-17 4 -14 15 11 19 43 40 55 190 103 179 58 182 58 165 58 -8 0 -19 -1 -25 -3z"/>
<path d="M2830 4026 c14 -6 28 -15 32 -21 11 -15 9 -173 -2 -180 -6 -4 -10
-81 -10 -198 0 -129 4 -187 10 -177 7 10 9 -67 7 -230 l-2 -245 -1359 -3
c-900 -1 -1363 1 -1370 8 -14 14 -26 12 -26 -4 0 -8 7 -17 16 -20 9 -3 629 -6
1379 -6 1138 0 1364 2 1374 14 8 9 10 160 9 541 l-3 527 -40 3 c-37 2 -38 1
-15 -9z"/>
<path d="M5 3175 c0 -473 1 -665 2 -427 2 239 2 626 0 860 -1 235 -2 40 -2
-433z"/>
<path d="M2959 3833 c-2 -98 -1 -239 2 -313 4 -97 6 -47 7 178 1 171 0 312 -2
312 -2 0 -5 -80 -7 -177z"/>
<path d="M1388 2983 c161 -2 422 -2 580 0 158 1 26 2 -293 2 -319 0 -448 -1
-287 -2z"/>
<path d="M118 2882 c-9 -11 -10 -14 0 -8 7 4 12 1 12 -9 0 -15 2 -15 15 -1 19
18 19 22 1 29 -8 3 -20 -2 -28 -11z"/>
<path d="M2795 2890 c-78 -6 -70 -18 15 -22 l55 -3 1 -660 c0 -363 -2 -624 -6
-580 -5 62 -7 38 -8 -102 -1 -100 -5 -188 -8 -197 -5 -14 -39 -16 -263 -18
l-256 -3 254 -2 c226 -3 256 -2 273 13 17 17 18 13 18 -124 0 -78 -4 -142 -9
-142 -5 0 -14 7 -21 15 -10 13 -53 15 -269 15 -187 0 -260 -3 -269 -12 -8 -8
-12 -67 -12 -199 0 -157 -2 -188 -15 -193 -8 -3 -15 -16 -15 -30 0 -14 -5 -28
-10 -31 -6 -4 -8 -10 -5 -15 7 -12 -29 -22 -50 -14 -14 6 -16 4 -10 -6 6 -10
2 -11 -21 -6 -16 4 -24 3 -17 -2 8 -5 -10 -14 -50 -24 l-62 -17 25 22 c23 20
24 25 13 47 -9 17 -13 91 -15 240 l-2 215 -6 -250 -5 -250 -70 -17 c-96 -25
-264 -48 -360 -51 -76 -2 -80 -1 -83 21 -2 12 1 22 7 22 8 0 11 84 11 265 l0
266 245 -1 c135 -1 245 2 245 7 0 4 -113 8 -252 8 l-252 0 -8 -35 c-4 -19 -8
-152 -8 -294 -2 -239 0 -261 16 -273 44 -32 -286 -7 -496 38 -293 64 -659 205
-837 323 -31 20 -55 30 -59 25 -3 -6 -4 -11 -3 -13 84 -58 328 -177 469 -229
356 -132 644 -184 955 -174 232 7 453 49 713 136 234 79 506 209 579 277 l33
31 0 986 c0 657 -3 988 -10 992 -6 4 -8 10 -5 15 8 14 -5 15 -80 10z m33
-1836 c20 -6 22 -12 22 -80 l0 -74 -41 -30 c-84 -60 -447 -230 -493 -230 -19
0 -33 23 -18 28 9 3 12 58 12 198 l0 194 248 0 c136 0 257 -3 270 -6z m-518
-434 c0 -9 -25 -20 -47 -20 -14 0 -14 2 1 19 17 18 46 19 46 1z"/>
<path d="M665 2880 c-4 -6 8 -10 29 -10 20 0 36 5 36 10 0 6 -13 10 -29 10
-17 0 -33 -4 -36 -10z"/>
<path d="M885 2880 c-4 -6 14 -10 42 -11 39 0 44 -2 26 -9 -23 -9 -23 -12 -23
-194 0 -108 -4 -187 -10 -191 -6 -3 -11 34 -13 97 l-3 103 -2 -125 c-1 -73 2
-119 7 -111 6 9 11 10 15 2 4 -6 12 -11 18 -11 6 0 5 7 -3 17 -11 13 -11 17
-1 20 9 4 12 50 12 189 l0 184 244 0 c134 0 251 -3 260 -6 14 -5 16 -32 16
-199 0 -145 -3 -195 -12 -198 -8 -4 -9 -6 -2 -6 28 -2 33 30 35 207 2 178 2
183 -21 207 l-23 24 51 -6 c58 -6 142 4 142 18 0 13 -747 12 -755 -1z"/>
<path d="M1760 2881 c0 -10 73 -20 110 -16 14 2 35 4 48 4 12 1 22 6 22 11 0
6 -37 10 -90 10 -49 0 -90 -4 -90 -9z"/>
<path d="M2090 2880 c0 -6 33 -10 80 -10 47 0 80 4 80 10 0 6 -33 10 -80 10
-47 0 -80 -4 -80 -10z"/>
<path d="M2410 2880 c0 -6 30 -10 70 -10 40 0 70 4 70 10 0 6 -30 10 -70 10
-40 0 -70 -4 -70 -10z"/>
<path d="M335 2860 l-180 -5 -5 -185 c-4 -123 -6 -152 -8 -86 -1 55 -4 97 -7
95 -7 -8 -9 -289 -1 -296 3 -3 6 4 6 16 0 12 7 24 15 27 11 5 12 10 2 26 -9
16 -9 22 1 25 9 4 12 50 12 184 l0 180 260 -3 c143 -2 260 0 260 4 0 17 -44
28 -107 26 -37 -1 -149 -5 -248 -8z"/>
<path d="M730 2845 c-9 -10 -11 -70 -9 -224 2 -116 0 -213 -3 -216 -3 -4 -131
-7 -285 -8 l-278 -2 -3 -53 c-5 -84 -14 -82 291 -82 207 0 267 -3 276 -13 7
-9 10 -82 8 -224 -1 -154 1 -213 10 -222 7 -6 42 -11 78 -11 l65 0 0 218 c0
199 2 220 18 235 16 15 51 17 284 17 l266 0 4 68 c2 37 3 68 3 69 -1 1 -129 4
-285 5 l-285 3 -3 213 c-2 154 1 212 9 212 8 0 8 4 -1 15 -17 21 -143 21 -160
0z m120 -220 c3 -110 9 -207 13 -216 17 -34 54 -39 292 -39 128 0 240 -3 249
-6 17 -6 21 -40 8 -61 -5 -8 -83 -12 -259 -15 -326 -4 -296 20 -303 -246 -3
-108 -9 -203 -13 -209 -4 -7 -18 -11 -30 -9 -12 3 -28 5 -34 5 -10 1 -13 48
-13 200 0 197 0 200 -24 228 l-24 28 -239 3 c-131 1 -248 2 -260 2 -23 0 -32
20 -25 58 l4 22 254 0 c248 0 253 0 279 23 l27 22 5 200 c4 129 10 203 17 208
6 4 25 6 41 5 l30 -3 5 -200z"/>
<path d="M1621 2847 c-7 -10 -11 -165 -11 -516 0 -583 -7 -544 96 -539 l59 3
3 518 c1 371 5 517 13 517 8 0 7 5 -1 15 -16 20 -142 21 -159 2z m92 -24 l27
-5 0 -482 c-1 -265 -4 -487 -8 -492 -12 -19 -47 -25 -65 -12 -14 12 -16 60
-17 488 -1 261 -1 482 -1 491 1 17 20 21 64 12z"/>
<path d="M1937 2853 c-12 -11 -8 -1033 3 -1033 6 0 10 -7 10 -15 0 -12 14 -15
65 -15 l65 0 0 519 c0 389 3 520 12 523 6 2 8 10 4 16 -8 13 -147 17 -159 5z
m111 -525 l-3 -493 -37 -3 -38 -3 -1 53 c0 29 -2 252 -5 496 l-4 442 45 0 45
0 -2 -492z"/>
<path d="M2252 2848 c-9 -9 -12 -128 -12 -515 0 -581 -6 -543 92 -543 31 0 59
4 62 9 3 4 6 244 6 532 l1 524 -68 3 c-44 2 -73 -2 -81 -10z m101 -27 c16 -1
17 -29 15 -493 l-3 -492 -25 -6 c-14 -4 -33 -4 -42 -2 -17 4 -18 36 -18 497 0
512 0 507 40 499 8 -1 23 -3 33 -3z"/>
<path d="M2567 2853 c-4 -3 -7 -236 -7 -517 1 -409 3 -514 14 -528 10 -14 28
-18 75 -18 l61 0 0 519 c0 389 3 520 12 523 6 2 8 10 4 16 -8 13 -147 17 -159
5z m109 -33 c13 0 14 -66 8 -487 -6 -428 -8 -490 -22 -501 -17 -13 -52 -7 -64
11 -3 6 -6 226 -6 489 l0 479 21 9 c12 5 28 7 35 4 8 -2 20 -4 28 -4z"/>
<path d="M692 2640 c-1 -131 -6 -190 -14 -200 -9 -10 -7 -10 5 1 16 14 17 34
14 200 l-2 184 -3 -185z"/>
<path d="M191 2436 c2 -2 106 -7 232 -11 159 -4 227 -3 227 4 0 8 -73 11 -232
11 -127 0 -229 -2 -227 -4z"/>
<path d="M970 2431 c0 -9 449 -3 459 5 2 2 -100 4 -227 4 -135 0 -232 -4 -232
-9z"/>
<path d="M128 2045 c-2 -143 -1 -386 2 -540 l5 -280 4 235 c2 129 5 240 6 245
2 6 3 20 4 32 1 20 5 22 49 17 26 -3 61 -1 77 5 26 8 21 9 -36 10 -71 1 -102
18 -80 44 6 8 12 81 13 193 l3 179 258 0 c141 0 257 3 257 6 0 16 -46 19 -275
19 -185 0 -245 -3 -253 -13 -6 -7 -12 -37 -15 -67 -3 -52 -3 -51 -5 16 -1 38
3 75 8 80 7 7 6 21 -4 45 -14 31 -15 13 -18 -226z m19 -172 c-2 -21 -4 -4 -4
37 0 41 2 58 4 38 2 -21 2 -55 0 -75z"/>
<path d="M942 2198 c-15 -15 -17 -392 -2 -383 6 4 10 78 10 191 l0 184 250 0
c169 0 250 -3 250 -11 0 -5 5 -7 12 -3 8 5 10 -39 5 -181 -4 -103 -5 -186 -2
-183 10 9 21 249 16 340 -3 57 -10 58 -280 58 -179 0 -250 -3 -259 -12z"/>
<path d="M694 1980 c0 -107 2 -151 3 -97 2 53 2 141 0 195 -1 53 -3 9 -3 -98z"/>
<path d="M1118 1783 c23 -2 59 -2 80 0 20 2 1 4 -43 4 -44 0 -61 -2 -37 -4z"/>
<path d="M433 1764 c7 -7 158 -6 165 1 3 3 -34 5 -83 5 -49 0 -86 -3 -82 -6z"/>
<path d="M293 1743 c-18 -7 -19 -857 -1 -895 8 -16 36 -37 75 -57 l63 -31 0
473 c0 363 3 476 12 485 10 10 10 15 -2 22 -15 10 -125 12 -147 3z m113 -185
c-2 -84 -4 -282 -5 -440 l-1 -288 -22 0 c-13 0 -31 7 -41 14 -16 13 -18 45
-24 414 -3 220 -3 412 1 426 6 23 11 26 50 26 l45 0 -3 -152z"/>
<path d="M611 1741 c-8 -5 -12 -149 -14 -518 -2 -498 -2 -510 18 -530 17 -18
102 -53 127 -53 4 0 8 243 8 540 0 413 3 540 12 540 9 0 9 3 1 11 -12 12 -135
20 -152 10z m109 -535 c0 -450 -2 -505 -16 -510 -25 -9 -33 -7 -54 14 -19 19
-20 33 -20 510 l0 490 45 0 45 0 0 -504z"/>
<path d="M921 1742 c-17 -6 -15 -1098 2 -1135 12 -26 23 -32 110 -53 l27 -6 0
579 c0 432 3 582 12 591 6 6 9 15 5 18 -7 8 -137 12 -156 6z m109 -581 c0
-594 1 -582 -52 -562 -14 5 -28 17 -32 26 -8 21 -8 1048 0 1069 4 11 19 16 45
16 l39 0 0 -549z"/>
<path d="M1239 1739 c-11 -7 -18 -1189 -6 -1189 4 0 7 -6 7 -14 0 -18 20 -24
85 -28 l50 -2 5 614 c3 338 4 617 3 619 -4 6 -134 6 -144 0z m106 -51 c3 -13
4 -272 3 -577 -3 -505 -4 -555 -20 -564 -12 -8 -24 -8 -42 1 l-26 12 0 575 0
575 40 0 c33 0 40 -4 45 -22z"/>
<path d="M1535 1738 c-2 -7 -6 -100 -7 -206 -2 -148 0 -192 10 -192 9 0 12 46
12 195 l0 196 250 -3 c164 -2 249 0 247 7 -6 16 -506 19 -512 3z"/>
<path d="M2100 1742 c-6 -2 -10 -89 -10 -233 0 -183 -3 -231 -13 -235 -8 -3
-133 -6 -278 -7 l-264 -2 -3 -63 c-2 -43 0 -62 7 -57 6 3 11 1 11 -4 0 -7 90
-12 268 -13 l267 -3 0 -262 c0 -143 3 -259 7 -257 3 2 8 0 10 -6 2 -6 30 -1
71 11 l67 20 0 233 c0 212 2 234 18 249 16 14 55 17 292 19 l274 3 -3 48 c-1
27 3 54 10 63 6 8 10 17 7 19 -2 2 -135 5 -295 5 -252 1 -292 3 -297 16 -3 9
-6 110 -6 225 0 156 3 209 12 209 9 0 9 3 0 12 -11 11 -126 18 -152 10z m110
-238 c0 -115 4 -213 10 -224 18 -34 65 -40 314 -40 133 0 246 -4 251 -8 18
-12 15 -51 -4 -62 -10 -5 -123 -9 -253 -9 -129 0 -247 -5 -261 -10 -53 -21
-57 -37 -57 -266 0 -115 -4 -215 -8 -220 -12 -17 -60 -38 -71 -31 -7 5 -11 79
-11 227 0 234 -5 265 -51 289 -13 8 -102 11 -254 10 -254 -1 -258 0 -247 56
l4 24 250 0 249 0 24 25 c25 24 25 25 25 219 0 107 3 201 6 210 4 11 19 16 45
16 l39 0 0 -206z"/>
<path d="M2302 1737 c-12 -14 -19 -413 -8 -425 4 -3 4 1 0 11 -3 10 -1 17 5
17 7 0 11 62 13 193 l3 192 267 0 c212 0 264 3 256 13 -15 18 -521 17 -536 -1z"/>
<path d="M5 1295 c0 -231 1 -324 2 -207 2 117 2 306 0 420 -1 114 -2 18 -2
-213z"/>
<path d="M2054 1430 c0 -58 1 -81 3 -52 2 28 2 76 0 105 -2 28 -3 5 -3 -53z"/>
<path d="M1873 1303 c26 -2 68 -2 95 0 26 2 4 3 -48 3 -52 0 -74 -1 -47 -3z"/>
<path d="M112 1023 c-1 -78 1 -144 6 -146 4 -3 6 45 4 106 -4 178 -8 194 -10
40z"/>
<path d="M2840 1122 c0 -8 -32 -13 -102 -14 l-103 -2 99 -3 c92 -4 131 5 113
24 -4 3 -7 1 -7 -5z"/>
<path d="M1403 560 c0 -36 2 -50 4 -32 2 17 2 47 0 65 -2 17 -4 3 -4 -33z"/>
<path d="M433 343 c-23 -8 -15 -61 12 -79 31 -20 55 -12 55 19 0 32 -42 69
-67 60z"/>
<path d="M2238 322 l-48 -16 0 -103 c0 -57 1 -103 3 -103 1 0 29 9 62 19 48
15 61 23 63 41 4 24 3 24 -58 4 -10 -4 -15 3 -16 20 -2 21 3 25 30 28 24 2 32
8 34 27 4 24 -4 25 -49 7 -13 -6 -16 -1 -16 18 0 14 2 24 6 23 3 0 20 2 36 5
21 5 31 13 32 27 2 25 -13 26 -79 3z"/>
<path d="M2503 314 c-19 -30 -8 -59 22 -59 23 0 60 49 52 69 -10 26 -54 19
-74 -10z"/>
<path d="M697 312 c-22 -24 -23 -112 -2 -152 16 -30 70 -55 98 -45 25 10 40
61 33 113 -10 80 -88 130 -129 84z m73 -93 c0 -46 -3 -59 -15 -59 -8 0 -15 1
-15 3 -14 92 -9 130 15 121 11 -5 15 -22 15 -65z"/>
<path d="M870 186 c0 -58 4 -106 9 -106 5 0 17 -3 26 -7 16 -6 17 1 10 80 -4
48 -5 87 -2 87 3 0 10 -33 17 -72 16 -100 19 -110 38 -106 12 2 22 26 34 83
l17 80 -3 -87 c-2 -49 0 -88 4 -88 5 0 15 -3 24 -6 14 -5 16 7 16 99 l0 105
-31 7 c-17 4 -32 5 -35 3 -2 -3 -10 -36 -17 -74 l-13 -69 -7 75 c-4 41 -11 78
-15 81 -4 4 -22 10 -39 14 l-33 7 0 -106z"/>
<path d="M2072 277 c-38 -22 -56 -57 -57 -113 0 -83 40 -113 105 -79 23 12 30
22 30 45 0 34 -14 39 -30 10 -6 -11 -17 -20 -24 -20 -28 0 -36 73 -12 106 13
16 18 17 35 7 30 -19 33 -17 29 20 -2 26 -8 32 -28 34 -14 2 -35 -3 -48 -10z"/>
<path d="M1959 253 c-11 -3 -19 -20 -24 -51 -10 -76 -16 -106 -19 -110 -2 -1
-7 26 -10 60 -9 79 -16 91 -48 83 l-25 -7 17 -56 c10 -31 23 -75 29 -98 10
-36 14 -41 36 -37 13 3 27 13 29 22 3 9 14 50 25 91 11 42 23 83 27 93 6 17
-2 20 -37 10z"/>
<path d="M1110 135 l0 -105 26 0 27 0 -6 82 -6 83 18 -60 c28 -96 47 -125 84
-125 15 0 17 12 17 104 l0 104 -26 5 -27 5 6 -82 c6 -85 1 -82 -27 16 -16 56
-36 78 -70 78 -14 0 -16 -16 -16 -105z"/>
<path d="M1720 114 c0 -105 0 -106 23 -100 12 3 39 6 60 6 33 0 37 3 37 26 0
24 -3 26 -32 20 l-33 -6 3 80 4 80 -31 0 -31 0 0 -106z"/>
<path d="M1320 111 c0 -97 0 -99 25 -103 13 -3 27 -3 30 0 3 3 5 50 5 104 l0
98 -30 0 -30 0 0 -99z"/>
<path d="M1464 197 c-2 -7 -15 -54 -28 -104 l-24 -93 29 0 c22 0 29 5 29 20 0
15 7 20 25 20 18 0 25 -5 25 -20 0 -16 7 -20 31 -20 21 0 30 4 26 13 -2 6 -12
53 -23 104 l-18 91 -34 0 c-18 0 -35 -5 -38 -11z m43 -64 c-3 -2 -1 -18 3 -34
8 -25 6 -29 -12 -29 -18 0 -20 4 -14 31 3 17 6 41 6 53 1 20 1 20 11 3 6 -10
9 -21 6 -24z"/>
</g>
</svg>
